<svg viewBox="0 0 330 200" xmlns="http://www.w3.org/2000/svg"><g><g><g><g><g><line x1="41.04399871826172" y1="176.61800003051758" x2="36.04399871826172" y2="176.61800003051758" style="visibility: inherit;" fill="rgb(0, 0, 0)" stroke="rgb(204, 204, 204)" stroke-width="1px"></line><line x1="41.04399871826172" y1="158.95620002746583" x2="36.04399871826172" y2="158.95620002746583" style="visibility: inherit;" fill="rgb(0, 0, 0)" stroke="rgb(204, 204, 204)" stroke-width="1px"></line><line x1="41.04399871826172" y1="141.29440002441407" x2="36.04399871826172" y2="141.29440002441407" style="visibility: inherit;" fill="rgb(0, 0, 0)" stroke="rgb(204, 204, 204)" stroke-width="1px"></line><line x1="41.04399871826172" y1="123.6326000213623" x2="36.04399871826172" y2="123.6326000213623" style="visibility: inherit;" fill="rgb(0, 0, 0)" stroke="rgb(204, 204, 204)" stroke-width="1px"></line><line x1="41.04399871826172" y1="105.97080001831054" x2="36.04399871826172" y2="105.97080001831054" style="visibility: inherit;" fill="rgb(0, 0, 0)" stroke="rgb(204, 204, 204)" stroke-width="1px"></line><line x1="41.04399871826172" y1="88.30900001525879" x2="36.04399871826172" y2="88.30900001525879" style="visibility: inherit;" fill="rgb(0, 0, 0)" stroke="rgb(204, 204, 204)" stroke-width="1px"></line><line x1="41.04399871826172" y1="70.64720001220704" x2="36.04399871826172" y2="70.64720001220704" style="visibility: inherit;" fill="rgb(0, 0, 0)" stroke="rgb(204, 204, 204)" stroke-width="1px"></line><line x1="41.04399871826172" y1="52.98540000915526" x2="36.04399871826172" y2="52.98540000915526" style="visibility: inherit;" fill="rgb(0, 0, 0)" stroke="rgb(204, 204, 204)" stroke-width="1px"></line><line x1="41.04399871826172" y1="35.323600006103504" x2="36.04399871826172" y2="35.323600006103504" style="visibility: inherit;" fill="rgb(0, 0, 0)" stroke="rgb(204, 204, 204)" stroke-width="1px"></line><line x1="41.04399871826172" y1="17.661800003051752" x2="36.04399871826172" y2="17.661800003051752" style="visibility: inherit;" fill="rgb(0, 0, 0)" stroke="rgb(204, 204, 204)" stroke-width="1px"></line><line x1="41.04399871826172" y1="0" x2="36.04399871826172" y2="0" style="visibility: inherit;" fill="rgb(0, 0, 0)" stroke="rgb(204, 204, 204)" stroke-width="1px"></line></g><g transform="translate(31.04399871826172, 0)"><text style="text-anchor: end; visibility: hidden; font-family: Roboto, sans-serif; font-size: 12px; font-weight: 200;" x="0" y="176.61800003051758" dx="0em" dy="0.3em" fill="rgb(33, 33, 33)" stroke="none" stroke-width="1px">0.1</text><text style="text-anchor: end; visibility: inherit; font-family: Roboto, sans-serif; font-size: 12px; font-weight: 200;" x="0" y="158.95620002746583" dx="0em" dy="0.3em" fill="rgb(33, 33, 33)" stroke="none" stroke-width="1px">0.2</text><text style="text-anchor: end; visibility: hidden; font-family: Roboto, sans-serif; font-size: 12px; font-weight: 200;" x="0" y="141.29440002441407" dx="0em" dy="0.3em" fill="rgb(33, 33, 33)" stroke="none" stroke-width="1px">0.3</text><text style="text-anchor: end; visibility: inherit; font-family: Roboto, sans-serif; font-size: 12px; font-weight: 200;" x="0" y="123.6326000213623" dx="0em" dy="0.3em" fill="rgb(33, 33, 33)" stroke="none" stroke-width="1px">0.4</text><text style="text-anchor: end; visibility: hidden; font-family: Roboto, sans-serif; font-size: 12px; font-weight: 200;" x="0" y="105.97080001831054" dx="0em" dy="0.3em" fill="rgb(33, 33, 33)" stroke="none" stroke-width="1px">0.5</text><text style="text-anchor: end; visibility: inherit; font-family: Roboto, sans-serif; font-size: 12px; font-weight: 200;" x="0" y="88.30900001525879" dx="0em" dy="0.3em" fill="rgb(33, 33, 33)" stroke="none" stroke-width="1px">0.6</text><text style="text-anchor: end; visibility: hidden; font-family: Roboto, sans-serif; font-size: 12px; font-weight: 200;" x="0" y="70.64720001220704" dx="0em" dy="0.3em" fill="rgb(33, 33, 33)" stroke="none" stroke-width="1px">0.7</text><text style="text-anchor: end; visibility: inherit; font-family: Roboto, sans-serif; font-size: 12px; font-weight: 200;" x="0" y="52.98540000915526" dx="0em" dy="0.3em" fill="rgb(33, 33, 33)" stroke="none" stroke-width="1px">0.8</text><text style="text-anchor: end; visibility: hidden; font-family: Roboto, sans-serif; font-size: 12px; font-weight: 200;" x="0" y="35.323600006103504" dx="0em" dy="0.3em" fill="rgb(33, 33, 33)" stroke="none" stroke-width="1px">0.9</text><text style="text-anchor: end; visibility: inherit; font-family: Roboto, sans-serif; font-size: 12px; font-weight: 200;" x="0" y="17.661800003051752" dx="0em" dy="0.3em" fill="rgb(33, 33, 33)" stroke="none" stroke-width="1px">1</text><text style="text-anchor: end; visibility: hidden; font-family: Roboto, sans-serif; font-size: 12px; font-weight: 200;" x="0" y="0" dx="0em" dy="0.3em" fill="rgb(33, 33, 33)" stroke="none" stroke-width="1px">1.1</text></g><line x1="41.04399871826172" y1="0" x2="41.04399871826172" y2="176.61800003051758" fill="rgb(0, 0, 0)" stroke="rgb(204, 204, 204)" stroke-width="1px"></line></g></g><g transform="translate(41, 0)" clip-path="url(#clip_0)"><clipPath id="clip_0"><rect width="288" height="176"></rect></clipPath><g><g><g><line x1="0" y1="0" x2="0" y2="176.61800003051758" fill="rgb(0, 0, 0)" stroke="rgb(66, 66, 66)" stroke-width="1px" opacity="0.25"></line><line x1="24.079666773478188" y1="0" x2="24.079666773478188" y2="176.61800003051758" fill="rgb(0, 0, 0)" stroke="rgb(66, 66, 66)" stroke-width="1px" opacity="0.25"></line><line x1="48.159333546956375" y1="0" x2="48.159333546956375" y2="176.61800003051758" fill="rgb(0, 0, 0)" stroke="rgb(66, 66, 66)" stroke-width="1px" opacity="0.25"></line><line x1="72.23900032043457" y1="0" x2="72.23900032043457" y2="176.61800003051758" fill="rgb(0, 0, 0)" stroke="rgb(66, 66, 66)" stroke-width="1px" opacity="0.25"></line><line x1="96.31866709391275" y1="0" x2="96.31866709391275" y2="176.61800003051758" fill="rgb(0, 0, 0)" stroke="rgb(66, 66, 66)" stroke-width="1px" opacity="0.25"></line><line x1="120.39833386739096" y1="0" x2="120.39833386739096" y2="176.61800003051758" fill="rgb(0, 0, 0)" stroke="rgb(66, 66, 66)" stroke-width="1px" opacity="0.25"></line><line x1="144.47800064086914" y1="0" x2="144.47800064086914" y2="176.61800003051758" fill="rgb(0, 0, 0)" stroke="rgb(66, 66, 66)" stroke-width="1px" opacity="0.25"></line><line x1="168.55766741434735" y1="0" x2="168.55766741434735" y2="176.61800003051758" fill="rgb(0, 0, 0)" stroke="rgb(66, 66, 66)" stroke-width="1px" opacity="0.25"></line><line x1="192.6373341878255" y1="0" x2="192.6373341878255" y2="176.61800003051758" fill="rgb(0, 0, 0)" stroke="rgb(66, 66, 66)" stroke-width="1px" opacity="0.25"></line><line x1="216.7170009613037" y1="0" x2="216.7170009613037" y2="176.61800003051758" fill="rgb(0, 0, 0)" stroke="rgb(66, 66, 66)" stroke-width="1px" opacity="0.25"></line><line x1="240.79666773478192" y1="0" x2="240.79666773478192" y2="176.61800003051758" fill="rgb(0, 0, 0)" stroke="rgb(66, 66, 66)" stroke-width="1px" opacity="0.25"></line><line x1="264.8763345082601" y1="0" x2="264.8763345082601" y2="176.61800003051758" fill="rgb(0, 0, 0)" stroke="rgb(66, 66, 66)" stroke-width="1px" opacity="0.25"></line><line x1="288.9560012817383" y1="0" x2="288.9560012817383" y2="176.61800003051758" fill="rgb(0, 0, 0)" stroke="rgb(66, 66, 66)" stroke-width="1px" opacity="0.25"></line></g><g><line x1="0" y1="176.61800003051758" x2="288.9560012817383" y2="176.61800003051758" fill="rgb(0, 0, 0)" stroke="rgb(66, 66, 66)" stroke-width="1px" opacity="0.25"></line><line x1="0" y1="158.95620002746583" x2="288.9560012817383" y2="158.95620002746583" fill="rgb(0, 0, 0)" stroke="rgb(66, 66, 66)" stroke-width="1px" opacity="0.25"></line><line x1="0" y1="141.29440002441407" x2="288.9560012817383" y2="141.29440002441407" fill="rgb(0, 0, 0)" stroke="rgb(66, 66, 66)" stroke-width="1px" opacity="0.25"></line><line x1="0" y1="123.6326000213623" x2="288.9560012817383" y2="123.6326000213623" fill="rgb(0, 0, 0)" stroke="rgb(66, 66, 66)" stroke-width="1px" opacity="0.25"></line><line x1="0" y1="105.97080001831054" x2="288.9560012817383" y2="105.97080001831054" fill="rgb(0, 0, 0)" stroke="rgb(66, 66, 66)" stroke-width="1px" opacity="0.25"></line><line x1="0" y1="88.30900001525879" x2="288.9560012817383" y2="88.30900001525879" fill="rgb(0, 0, 0)" stroke="rgb(66, 66, 66)" stroke-width="1px" opacity="0.25"></line><line x1="0" y1="70.64720001220704" x2="288.9560012817383" y2="70.64720001220704" fill="rgb(0, 0, 0)" stroke="rgb(66, 66, 66)" stroke-width="1px" opacity="0.25"></line><line x1="0" y1="52.98540000915526" x2="288.9560012817383" y2="52.98540000915526" fill="rgb(0, 0, 0)" stroke="rgb(66, 66, 66)" stroke-width="1px" opacity="0.25"></line><line x1="0" y1="35.323600006103504" x2="288.9560012817383" y2="35.323600006103504" fill="rgb(0, 0, 0)" stroke="rgb(66, 66, 66)" stroke-width="1px" opacity="0.25"></line><line x1="0" y1="17.661800003051752" x2="288.9560012817383" y2="17.661800003051752" fill="rgb(0, 0, 0)" stroke="rgb(66, 66, 66)" stroke-width="1px" opacity="0.25"></line><line x1="0" y1="0" x2="288.9560012817383" y2="0" fill="rgb(0, 0, 0)" stroke="rgb(66, 66, 66)" stroke-width="1px" opacity="0.25"></line></g></g></g><g><g><line x1="0" y1="194.27980003356936" x2="288.9560012817383" y2="194.27980003356936" fill="rgb(0, 0, 0)" stroke="rgb(153, 153, 153)" stroke-width="1.5px"></line></g></g><g><g><line x1="24.079666773478188" y1="0" x2="24.079666773478188" y2="176.61800003051758" fill="rgb(0, 0, 0)" stroke="rgb(153, 153, 153)" stroke-width="1.5px"></line></g></g><g><g><g><g><g><path style="fill: none;" stroke="rgb(204, 51, 17)" stroke-width="2px" d="M26.43947411727905,25.24637008201998L28.84744079462687,30.97306420645641L31.25540747197469,37.63500809466002L33.663374149322514,36.830864238516575L36.07134082667033,37.89911400029669L26.43947411727905,32.35205140091788L28.84744079462687,33.70509509603495L31.25540747197469,39.03961921453155L33.663374149322514,38.323905525915166" fill="none"></path></g><g><path style="fill: none;" stroke="rgb(255, 112, 67)" stroke-width="2px" d="M26.43947411727905,27.92696666131958L28.84744079462687,30.964802944544783L31.25540747197469,35.091514378425806L33.663374149322514,34.16529302960744L36.07134082667033,33.72977342875584L38.479307504018145,34.95482033546979L40.88727418136596,39.97034912793975" fill="none"></path></g><g><path style="fill: none;" stroke="rgb(0, 153, 136)" stroke-width="2px" d="M26.43947411727905,19.090453528412667L28.84744079462687,24.561486730501144L31.25540747197469,25.30871290487441L33.663374149322514,23.98549117049886L36.07134082667033,24.941741766738986L38.479307504018145,26.924913226086503" fill="none"></path></g><g><path style="fill: none;" stroke="rgb(51, 187, 238)" stroke-width="2px" d="M26.43947411727905,23.219789632088663L28.84744079462687,29.096457636752586L31.25540747197469,31.866211510290537L33.663374149322514,36.27508444914675L36.07134082667033,38.38660517381885L38.479307504018145,43.185047880774654L40.88727418136596,53.053305180226786L43.29524085871379,55.2379731377003L45.703207536061605,46.08584525589475L48.11117421340943,82.12072629214742L50.51914089075724,74.74171451483383L52.927107568105065,75.63462154364063L55.33507424545288,72.90333496226808" fill="none"></path></g><g><path style="fill: none;" stroke="rgb(0, 119, 187)" stroke-width="2px" d="M26.43947411727905,17.639903316494014L28.84744079462687,20.158903928085493L31.25540747197469,19.845397226701184L33.663374149322514,20.93161398528216L36.07134082667033,21.07021489295665L38.479307504018145,19.955640450699875" fill="none"></path></g><g><path style="fill: none;" stroke="rgb(187, 187, 187)" stroke-width="2px" d="M26.43947411727905,21.91255744459167L28.84744079462687,37.330114458800374L31.25540747197469,45.624507677097725L33.663374149322514,54.852391581857695L36.07134082667033,46.55428242759981L38.479307504018145,62.53930860666922L40.88727418136596,73.01351991235433L43.29524085871379,81.29628933989963L45.703207536061605,88.72001796435804L48.11117421340943,118.27856266569404L50.51914089075724,111.42315761117885L52.927107568105065,114.44209276952742L55.33507424545288,105.97027398258611L57.7430409228007,113.73454800911662L60.15100760014852,116.24608342775264L62.55897427749634,117.2782053995652L64.96694095484416,115.46589155481232L67.37490763219198,118.49880696379748L69.78287430953979,117.1274615695447L72.19084098688761,121.01345502378759L74.59880766423542,124.7260102706922L77.00677434158325,115.8971486768432L79.41474101893107,117.75360587602992L81.8227076962789,117.62927048406868L84.2306743736267,123.70774447096808L86.63864105097453,129.73623391003076L89.04660772832234,131.1631110992267L91.45457440567017,129.64952086186733L93.86254108301797,137.5050729825694L96.2705077603658,138.44880276025526L98.67847443771363,140.06527730527955L101.08644111506145,133.89514030488536L103.49440779240926,136.70101505053321L105.90237446975708,141.01168749703422L108.31034114710491,141.2442517821864L110.71830782445271,138.51453694352475L113.12627450180054,139.10359267324816L115.53424117914835,127.08185257881354L117.94220785649618,135.15000924706393L120.35017453384398,135.5509205190648L122.75814121119181,136.40148580995324L125.16610788853963,137.46835664404065L127.57407456588746,140.9163902184537L129.98204124323527,140.10272843805367L132.3900079205831,144.67774852308992L134.7979745979309,143.51823817186624L137.20594127527872,140.85347663330126L139.61390795262656,140.8291493825601L142.02187462997438,140.34352582794367L144.4298413073222,142.34363152166134L146.83780798467,142.5404624505732L149.24577466201782,130.1210972838455L151.65374133936567,129.2587259535272L154.06170801671345,138.83700209236252L156.46967469406127,140.1494171267712L158.87764137140908,142.2968061859986L161.28560804875693,123.5035441471548L163.69357472610474,121.10827662188962L166.10154140345256,124.77291353674511L168.5095080808004,124.21603558047805L170.9174747581482,130.16611046724483L173.325441435496,135.96244415789587L175.73340811284382,136.43175964993907L178.14137479019166,139.4559257801268L180.54934146753948,141.86723228307437L182.9573081448873,141.46089960146148L185.3652748222351,137.84518290955373L187.77324149958295,136.09958852814168L190.18120817693074,148.41375531470104L192.58917485427855,146.85524294101177L194.99714153162637,147.76377967779277L197.4051082089742,146.88214520551858L199.81307488632203,149.54208846899033L202.22104156366984,153.06620084912515L204.6290082410177,147.1274627859883L207.03697491836547,144.21252398991385L209.4449415957133,145.93748056190753L211.8529082730611,150.9958517021276L214.26087495040895,151.91321319477595L216.66884162775676,142.8519953078204L219.07680830510458,147.81256299913645L221.4847749824524,144.39327940057981L223.89274165980024,143.66184363040685L226.30070833714802,137.9224386205675L228.70867501449584,142.34159467810764L231.11664169184365,143.60267608707355L233.5246083691915,145.11190773309065L235.9325750465393,143.02244530419165L238.34054172388713,146.15737545752626L240.74850840123497,139.39222684439406L243.15647507858276,138.49474129596896L245.56444175593057,142.51524116986533L247.9724084332784,139.58877940662182L250.38037511062623,134.17666100168472L252.78834178797405,146.02053580350074L255.19630846532186,143.8727545790704L257.6042751426697,149.6006832449309L260.0122418200175,147.79877609074353L262.4202084973653,149.66178447656196" fill="none"></path></g><g><path style="fill: none;" stroke="rgb(238, 51, 119)" stroke-width="2px" d="M26.43947411727905,13.942647791219857L28.84744079462687,16.19901975478288L31.25540747197469,16.284998140831938L33.663374149322514,17.27711207335897L36.07134082667033,17.660095238232252L38.479307504018145,17.86645184816634" fill="none"></path></g><g><path style="fill: none;" stroke="rgb(204, 51, 17)" stroke-width="2px" d="M26.43947411727905,19.356603542620718L28.84744079462687,32.84258725069509L31.25540747197469,35.87266706991047L33.663374149322514,36.89860339705345L36.07134082667033,37.19276195697503L38.479307504018145,41.33708972804619L40.88727418136596,51.929047129871265L43.29524085871379,54.97983740934149L45.703207536061605,53.54064307525103L48.11117421340943,81.62005007287198L50.51914089075724,71.06029437776733L52.927107568105065,67.87621613793128L55.33507424545288,67.74564337252671" fill="none"></path></g><g><path style="fill: none;" stroke="rgb(255, 112, 67)" stroke-width="2px" d="M26.43947411727905,13.513177971599903L28.84744079462687,25.757478749839578L31.25540747197469,28.649438724995594L33.663374149322514,33.895606632402824L36.07134082667033,33.26587860005302L38.479307504018145,33.54860297740111" fill="none"></path></g><g><path style="fill: none;" stroke="rgb(0, 153, 136)" stroke-width="2px" d="M26.43947411727905,19.7178778163171L28.84744079462687,25.173732035265964L31.25540747197469,28.558759544440548L33.663374149322514,29.23217970618065L36.07134082667033,29.578990059451634L38.479307504018145,38.02016435803838L40.88727418136596,45.69422836250609L43.29524085871379,49.618935889676095L45.703207536061605,53.32355823428819L48.11117421340943,83.98525726789454L50.51914089075724,78.02704755657483L52.927107568105065,74.84817428583244L55.33507424545288,74.65591948019323" fill="none"></path></g><g><path style="fill: none;" stroke="rgb(51, 187, 238)" stroke-width="2px" d="M26.43947411727905,23.146919985765265L28.84744079462687,33.134447448915445L31.25540747197469,40.78204233949787L33.663374149322514,39.93241439926064L36.07134082667033,43.340320470631646L38.479307504018145,47.82495862173554L40.88727418136596,56.94557674762959L43.29524085871379,69.87810901549386L45.703207536061605,77.36599956295989L48.11117421340943,100.95393789435313L50.51914089075724,92.15780736719509L52.927107568105065,91.93800182571995L55.33507424545288,95.12555212800268" fill="none"></path></g><g><path style="fill: none;" stroke="rgb(0, 119, 187)" stroke-width="2px" d="M26.43947411727905,-31.549739765087345L28.84744079462687,28.04569828600297L31.25540747197469,51.83459683090344L33.663374149322514,68.25425433217654L36.07134082667033,75.72471752435438L38.479307504018145,87.5780981543977L40.88727418136596,92.24285834337026L43.29524085871379,103.60845418614869L45.703207536061605,90.23234796861598L48.11117421340943,63.3276033271887L50.51914089075724,79.27653092827386L52.927107568105065,86.85484904884756L55.33507424545288,100.06244258735835L57.7430409228007,113.15525693190459L60.15100760014852,118.48126827669786L62.55897427749634,118.03221884689877L64.96694095484416,124.96721742807297L67.37490763219198,125.62866575126516L69.78287430953979,124.71303175917959L72.19084098688761,128.10207857779645L74.59880766423542,136.07199776474638L77.00677434158325,138.30863409633977L79.41474101893107,138.72798551264566L81.8227076962789,141.23989463389142L84.2306743736267,144.04386533195648L86.63864105097453,142.72806530935276L72.19084098688761,138.91097089221967L74.59880766423542,142.5571605567805" fill="none"></path></g><g><path style="fill: none;" stroke="rgb(187, 187, 187)" stroke-width="2px" d="M26.43947411727905,21.657039956067887L28.84744079462687,22.68047318944623L31.25540747197469,22.00700022556977L33.663374149322514,21.175524944986183L36.07134082667033,20.954696692207936L38.479307504018145,21.63763982427386" fill="none"></path></g><g><path style="fill: none;" stroke="rgb(238, 51, 119)" stroke-width="2px" d="M26.43947411727905,19.11026581884616L28.84744079462687,17.575550217971198L31.25540747197469,17.913705999218433L33.663374149322514,17.94833108898866L36.07134082667033,17.83904951951294L38.479307504018145,17.990740955090022" fill="none"></path></g><g><path style="fill: none;" stroke="rgb(204, 51, 17)" stroke-width="2px" d="M26.43947411727905,24.94932257980858L28.84744079462687,37.6680932371763L31.25540747197469,47.033832521144426L33.663374149322514,49.689870912132925L36.07134082667033,55.41738968129258L38.479307504018145,65.09699062056701L40.88727418136596,73.25309804054949L43.29524085871379,88.13450258634717L45.703207536061605,95.81951085665742L48.11117421340943,122.2569428577156L50.51914089075724,118.01911297813336L52.927107568105065,119.44966433053324L55.33507424545288,122.78013730109868L57.7430409228007,118.29611984500113L60.15100760014852,116.29846963475725L62.55897427749634,120.60388958980907L64.96694095484416,119.16478428424628L67.37490763219198,123.7160689965176L69.78287430953979,115.49761352426792L72.19084098688761,115.8487199548965L74.59880766423542,123.8321666162282L77.00677434158325,124.55605643800153L79.41474101893107,131.68770293270566L81.8227076962789,131.15353604357182L84.2306743736267,134.2080971188614L86.63864105097453,133.552387650159L89.04660772832234,132.87855216646523L91.45457440567017,130.50807924977985L93.86254108301797,139.8037652513929L96.2705077603658,142.34920717680544L98.67847443771363,144.8266324911978L101.08644111506145,143.51973115393545L103.49440779240926,141.32881456311046L105.90237446975708,140.43827086295457L108.31034114710491,138.3839250775868L110.71830782445271,137.90030853855544L113.12627450180054,138.35728304461176L115.53424117914835,139.52123960801322L117.94220785649618,142.58796758845205L120.35017453384398,132.3922589902234L122.75814121119181,133.74804032476925L125.16610788853963,129.8884761861967L127.57407456588746,136.25792789193753L129.98204124323527,139.1840770701041L132.3900079205831,143.52525784581533L134.7979745979309,143.91391425318977L137.20594127527872,137.37234696715316L139.61390795262656,142.82995466440994L142.02187462997438,138.9375748107186L144.4298413073222,142.7516755149813L146.83780798467,146.3107311786001L149.24577466201782,138.30670384836006L151.65374133936567,135.87160981931365L154.06170801671345,140.5064035544632L156.46967469406127,137.33843010055227L158.87764137140908,138.81913238426418L161.28560804875693,132.6913100696766L163.69357472610474,118.55882462801615L166.10154140345256,129.8824882462291L168.5095080808004,130.51787907983288L170.9174747581482,139.64214049400456L173.325441435496,147.33475378913303L175.73340811284382,141.6627804840912L178.14137479019166,144.13793254899215L180.54934146753948,145.0945662069174L182.9573081448873,146.8668383626435L185.3652748222351,141.22854387723032L187.77324149958295,144.848140179851L190.18120817693074,155.464100372889L192.58917485427855,153.6925936990761L194.99714153162637,151.6764995580718L197.4051082089742,145.85765371658417L199.81307488632203,150.9154569117257L202.22104156366984,156.44267971596528L204.6290082410177,151.71267483452286L207.03697491836547,148.77804224896826L209.4449415957133,146.89608348659405L211.8529082730611,152.88341978936108L214.26087495040895,151.4735845849742L216.66884162775676,149.5199806202012L219.07680830510458,148.63582704399184L221.4847749824524,146.8090636867519L223.89274165980024,146.91916570238527L226.30070833714802,142.23916220938807L228.70867501449584,147.70814131962504L231.11664169184365,148.28846301543737L233.5246083691915,149.50277946971613L235.9325750465393,149.37026740524587L238.34054172388713,149.77817830388838L240.74850840123497,145.58009135140998L243.15647507858276,148.21418116392897L245.56444175593057,149.94009853005454L247.9724084332784,152.51925481589237L250.38037511062623,144.69811017847437L252.78834178797405,148.78967713882957L255.19630846532186,150.1513494424249L257.6042751426697,157.448998292566L260.0122418200175,150.95430679693646L262.4202084973653,152.75005035292207" fill="none"></path></g><g><path style="fill: none;" stroke="rgb(255, 112, 67)" stroke-width="2px" d="M26.43947411727905,19.074315249329487L28.84744079462687,27.095016267350058L31.25540747197469,31.392736483440633L33.663374149322514,36.13824505886845L36.07134082667033,37.2675824910595L38.479307504018145,42.78708253830622" fill="none"></path></g><g><path style="fill: none;" stroke="rgb(187, 187, 187)" stroke-width="2px" d="M26.43947411727905,11.961671401946292L28.84744079462687,11.254147876615805L31.25540747197469,15.573430163003174L33.663374149322514,17.042550282032977L36.07134082667033,17.8368542036908L38.479307504018145,18.83597651638893" fill="none"></path></g><g><path style="fill: none;" stroke="rgb(51, 187, 238)" stroke-width="2px" d="M26.43947411727905,20.471397542485278L28.84744079462687,24.6066999668856L31.25540747197469,25.680228691995133L33.663374149322514,24.779012136459347L36.07134082667033,24.58558505306832L38.479307504018145,26.546922829158778" fill="none"></path></g><g><path style="fill: none;" stroke="rgb(0, 119, 187)" stroke-width="2px" d="M26.43947411727905,20.911099852169713L28.84744079462687,24.752336618814155L31.25540747197469,25.91979288031254L33.663374149322514,25.234962796947418L36.07134082667033,25.114976929627314L38.479307504018145,27.104469638914026" fill="none"></path></g><g><path style="fill: none;" stroke="rgb(187, 187, 187)" stroke-width="2px" d="M26.43947411727905,27.497423150927574L28.84744079462687,32.989589813720215L31.25540747197469,39.267794511696586L33.663374149322514,38.2555879247943L36.07134082667033,39.46815046277296L38.479307504018145,45.26320670222797L40.88727418136596,56.733924449830475L43.29524085871379,66.87422798197153L45.703207536061605,70.94696393340554L48.11117421340943,98.46441487402576L50.51914089075724,89.34170477604891L52.927107568105065,88.14088472336019L55.33507424545288,90.86202862318389L57.7430409228007,86.4819263952455L60.15100760014852,88.18321515631958L62.55897427749634,91.11725183721524L64.96694095484416,91.27041321575165L67.37490763219198,90.2794133760939L69.78287430953979,86.51036390623676L72.19084098688761,89.87917783226793L74.59880766423542,94.33812736361934L77.00677434158325,96.6005543873744L79.41474101893107,100.78103573035605L81.8227076962789,95.27508657400385L84.2306743736267,100.08813219740269L86.63864105097453,102.43145508662705L89.04660772832234,111.15524428661688L91.45457440567017,106.47546324200869L93.86254108301797,115.46728935985213L96.2705077603658,116.8395375045961L98.67847443771363,117.23575126575903L101.08644111506145,117.89929849093733L103.49440779240926,115.71255861333337L105.90237446975708,122.0113779181033L108.31034114710491,119.37713609880244L110.71830782445271,120.02934355126038L113.12627450180054,119.88290644774999L115.53424117914835,113.47747110974431L117.94220785649618,115.4236391192111L120.35017453384398,111.23473663873115L122.75814121119181,114.15923514174212L125.16610788853963,109.98638328277987L127.57407456588746,117.74998638956328L129.98204124323527,118.91685632880275L132.3900079205831,130.53631267343363L134.7979745979309,127.46834305938611L137.20594127527872,122.5294349025704L139.61390795262656,121.75529757073417L142.02187462997438,121.68578086633536L144.4298413073222,123.56829270578864L146.83780798467,124.91690142386966L149.24577466201782,125.41029959094553L151.65374133936567,123.50555095063251L154.06170801671345,125.77271697855028L156.46967469406127,121.72508664359977L158.87764137140908,123.72193406848326L161.28560804875693,119.17547417584706L163.69357472610474,120.35765376622116L166.10154140345256,123.97036109637165L168.5095080808004,121.85171752258675L170.9174747581482,124.82516616942225L173.325441435496,131.09490213681542L175.73340811284382,130.06247682813813L178.14137479019166,129.08852692026576L180.54934146753948,130.96755526779424L182.9573081448873,132.30965454985554L185.3652748222351,126.62722697147454L187.77324149958295,128.91842117730778L190.18120817693074,140.37898733977275L192.58917485427855,133.1341749306724L194.99714153162637,133.97226074238617L197.4051082089742,133.32287910643737L199.81307488632203,141.72094417400442L202.22104156366984,145.67788688078247L204.6290082410177,143.24607299387847L207.03697491836547,130.62978489121727L209.4449415957133,133.69204924936082L211.8529082730611,139.96553128475125L214.26087495040895,139.0900137038409L216.66884162775676,135.58179334175665L219.07680830510458,136.26103324212508L221.4847749824524,137.13962123011697L223.89274165980024,133.4088033075119L226.30070833714802,124.11295362922272L228.70867501449584,127.82718485779024L231.11664169184365,132.43813572867847L233.5246083691915,134.80435902471328L235.9325750465393,136.59183100946632L238.34054172388713,130.58185619862516L240.74850840123497,128.97503879484202L243.15647507858276,132.23558136268815L245.56444175593057,134.6663575702869L247.9724084332784,136.18035034432566L250.38037511062623,138.01580539768975L252.78834178797405,147.0458496832096L255.19630846532186,142.78963589747752L257.6042751426697,146.16795371954964L260.0122418200175,142.02691730715867L262.4202084973653,143.33437627049705" fill="none"></path></g><g><path style="fill: none;" stroke="rgb(238, 51, 119)" stroke-width="2px" d="M26.43947411727905,-43.07577658796743L28.84744079462687,7.595945828725094L31.25540747197469,21.124126768866127L33.663374149322514,26.80897527923185L36.07134082667033,29.382452737696173L38.479307504018145,34.62033775002172" fill="none"></path></g><g><path style="fill: none;" stroke="rgb(204, 51, 17)" stroke-width="2px" d="M26.43947411727905,23.59127534134322L28.84744079462687,27.13773586064397L31.25540747197469,29.941757017403656L33.663374149322514,30.796370454789248L36.07134082667033,30.681860604557905L38.479307504018145,33.545407998472236L40.88727418136596,37.682507198654775L43.29524085871379,43.28596130455937L45.703207536061605,42.51777065318351L48.11117421340943,73.11991447504174L50.51914089075724,63.661477215295356L52.927107568105065,56.90668608912634L55.33507424545288,57.49935198065442L57.7430409228007,51.638876139062845L60.15100760014852,50.710774748353884L62.55897427749634,53.70354000921714L64.96694095484416,48.77191915167513L67.37490763219198,49.66952113244642L69.78287430953979,44.64664255404124L72.19084098688761,45.22047976941968L74.59880766423542,49.09036835094637L77.00677434158325,47.26867842069217L79.41474101893107,50.067396011454676L81.8227076962789,46.18554353744497L84.2306743736267,45.83721108972654L86.63864105097453,45.87896764184119L89.04660772832234,56.50906088073049L91.45457440567017,51.28052821305433L93.86254108301797,55.709670324590384L96.2705077603658,60.41092434776946L98.67847443771363,61.39647244366295L101.08644111506145,61.45999838965823L103.49440779240926,61.06679973905128L105.90237446975708,65.44243657622407L108.31034114710491,59.13302708725752L110.71830782445271,57.74225157312448L113.12627450180054,58.99941673938268L115.53424117914835,57.58105921141182L117.94220785649618,56.161202467172664L120.35017453384398,51.37857210440703L122.75814121119181,57.03074637221487L125.16610788853963,52.77574061306008L127.57407456588746,60.744570884751646L129.98204124323527,59.34096464733375L132.3900079205831,76.45039092384428L134.7979745979309,71.55131534335052L137.20594127527872,62.641595234416116L139.61390795262656,61.75867844914714L142.02187462997438,56.04479519555626L144.4298413073222,67.16187828490783L146.83780798467,67.7065637611143L149.24577466201782,60.56032226594431L151.65374133936567,61.75721730883495L154.06170801671345,68.33736682376147L156.46967469406127,64.28255446795538L158.87764137140908,64.09854098197914L161.28560804875693,59.283511878226975L163.69357472610474,53.40721368692892L166.10154140345256,52.67599518318092L168.5095080808004,50.72470834794369L170.9174747581482,58.10099202702034L173.325441435496,67.62986083296997L175.73340811284382,63.52021868710715L178.14137479019166,68.31167749082839L180.54934146753948,67.05212147885919L182.9573081448873,65.27515588693356L185.3652748222351,61.3299033324377L187.77324149958295,61.142693273600905L190.18120817693074,74.80110498553414L192.58917485427855,68.34414000592997L194.99714153162637,70.35884747920316L197.4051082089742,70.67364709461964L199.81307488632203,74.2189604628725L202.22104156366984,86.61322689126462L204.6290082410177,84.03446128365582L207.03697491836547,75.25133236265305L209.4449415957133,70.17100451941869L211.8529082730611,78.40086466109177L214.26087495040895,84.37544989486294L216.66884162775676,77.08794453114322L219.07680830510458,77.40400194766698L221.4847749824524,71.54029739869442L223.89274165980024,67.53713885827966L226.30070833714802,61.287903266008406L228.70867501449584,65.29758333031941L231.11664169184365,77.43296507397157L233.5246083691915,75.5385518432917L235.9325750465393,68.85704807688025L238.34054172388713,70.37063333753792L240.74850840123497,64.30338023500059L243.15647507858276,68.58295462888071L245.56444175593057,70.21492752155878L247.9724084332784,71.12095948045773L250.38037511062623,74.77309965395384L252.78834178797405,85.99106119190986L255.19630846532186,84.70015121940514L257.6042751426697,86.00906654006862L260.0122418200175,75.7654421162498L262.4202084973653,81.59746244045337" fill="none"></path></g><g><path style="fill: none;" stroke="rgb(0, 119, 187)" stroke-width="2px" d="M26.43947411727905,22.55645688368017L28.84744079462687,30.47397108220406L31.25540747197469,43.575804312086824L33.663374149322514,49.00986883890413L36.07134082667033,47.08645637006022L38.479307504018145,62.76472319572047L40.88727418136596,76.51202882854822L43.29524085871379,81.9767314623643L45.703207536061605,89.3813808851996L48.11117421340943,116.73449549901824L50.51914089075724,115.19017037063738L52.927107568105065,116.17770376749606L55.33507424545288,118.09668382298815L57.7430409228007,119.49899428028766L60.15100760014852,118.53904687948672L62.55897427749634,114.69094237326811L64.96694095484416,120.24336700850505L67.37490763219198,119.19618581043683L69.78287430953979,114.30951493601356L72.19084098688761,116.87243734239553L74.59880766423542,118.34285597967451L77.00677434158325,118.12703745205523L79.41474101893107,125.82603966482189L81.8227076962789,122.50167817327377L84.2306743736267,128.1688595687347L86.63864105097453,128.3694972076023L89.04660772832234,130.47132961009174L91.45457440567017,130.93393924373058L93.86254108301797,141.42866256876607L96.2705077603658,144.44124724425808L98.67847443771363,144.22235165342312L101.08644111506145,145.06864039204544L103.49440779240926,143.50471323624092L105.90237446975708,148.00516563702595L108.31034114710491,147.65217139067698L110.71830782445271,147.77736064544936L113.12627450180054,145.70435238571125L115.53424117914835,141.56052078329492L117.94220785649618,143.78171468900615L120.35017453384398,132.0999037567073L122.75814121119181,128.07924751481022L125.16610788853963,126.13104247247693L127.57407456588746,135.55795555233496L129.98204124323527,142.01405673302068L132.3900079205831,148.0134730373701L134.7979745979309,148.4602105001327L137.20594127527872,140.15975949891285L139.61390795262656,140.57980975161834L142.02187462997438,138.28077275214383L144.4298413073222,144.4964110392753L146.83780798467,149.3764469938064L149.24577466201782,147.20723154254685L151.65374133936567,139.7890144743256L154.06170801671345,140.41664801571233L156.46967469406127,141.24214390218796L158.87764137140908,142.22775456601482L161.28560804875693,137.1974246100933L163.69357472610474,137.87791386824455L166.10154140345256,143.51077367941713L168.5095080808004,134.51733731474096L170.9174747581482,142.95427773466855L173.325441435496,149.25747775357212L175.73340811284382,145.85004498198268L178.14137479019166,140.79974293722304L180.54934146753948,147.50321577875488L182.9573081448873,149.49069516138962L185.3652748222351,141.82156005384357L187.77324149958295,143.37509230460273L190.18120817693074,155.32519166080772L192.58917485427855,150.12663100563415L194.99714153162637,152.95782865021835L197.4051082089742,152.2920756480441L199.81307488632203,158.2121128598344L202.22104156366984,163.61143230474718L204.6290082410177,161.22011837642066L207.03697491836547,154.99989128480556L209.4449415957133,154.73107919917663L211.8529082730611,153.53959390154498L214.26087495040895,151.81215151117163L216.66884162775676,154.06141653832606L219.07680830510458,152.17971731195394L221.4847749824524,154.40727980940306L223.89274165980024,153.5583384988535L226.30070833714802,151.1164047914225L228.70867501449584,152.0674218124738L231.11664169184365,145.77017418438123L233.5246083691915,150.5936104714349L235.9325750465393,154.31471430585418L238.34054172388713,152.2702610285219L240.74850840123497,147.36829128147446L243.15647507858276,150.44622538485848L245.56444175593057,154.60050920715852L247.9724084332784,156.9179660134196L250.38037511062623,156.4699016539608L252.78834178797405,160.82902880389383L255.19630846532186,157.18186956413552L257.6042751426697,159.25301328749558L260.0122418200175,153.53843266703655L262.4202084973653,157.52644574757312" fill="none"></path></g><g><path style="fill: none;" stroke="rgb(0, 153, 136)" stroke-width="2px" d="M26.43947411727905,20.075951805055023L28.84744079462687,19.902574525162304L31.25540747197469,21.60240028957658L33.663374149322514,20.286983753568556L36.07134082667033,20.037453472248476L38.479307504018145,24.200885521144993" fill="none"></path></g><g><path style="fill: none;" stroke="rgb(51, 187, 238)" stroke-width="2px" d="M26.43947411727905,25.760857998101613L28.84744079462687,44.44023834496011L31.25540747197469,49.176432753862855L33.663374149322514,49.17783317551948L36.07134082667033,61.890493314804516L38.479307504018145,70.38690862582813L40.88727418136596,70.90026990780174L43.29524085871379,74.07477125800693L45.703207536061605,76.65384412307684L48.11117421340943,81.71846065986594L50.51914089075724,85.01610683691653L52.927107568105065,82.41369113620675L55.33507424545288,91.81361271535869L57.7430409228007,90.58653790637098L60.15100760014852,89.65794608750288L62.55897427749634,94.46566355841519L64.96694095484416,98.71952290016232L67.37490763219198,100.76920613558937L69.78287430953979,100.42011975639876L72.19084098688761,90.33739514371871L74.59880766423542,96.65948083512743L77.00677434158325,104.036637150769L79.41474101893107,105.22863316986962L81.8227076962789,108.93073223586534L84.2306743736267,113.8453984578804L86.63864105097453,111.84418847075266" fill="none"></path></g><g><path style="fill: none;" stroke="rgb(0, 119, 187)" stroke-width="2px" d="M26.43947411727905,40.20946031399748L28.84744079462687,52.40673716831043L31.25540747197469,71.18639470394412L33.663374149322514,77.05756988837565L36.07134082667033,97.91070086677493L38.479307504018145,108.7038175126368L40.88727418136596,117.66730063955319L43.29524085871379,121.6375280813823L45.703207536061605,118.94337494290093L48.11117421340943,128.6568000487444L50.51914089075724,131.14862305112206L52.927107568105065,131.37898407911013L55.33507424545288,135.77186766857L57.7430409228007,142.85618494531346L60.15100760014852,142.14773170942098L62.55897427749634,142.68134873130452L64.96694095484416,149.90389807642973L67.37490763219198,153.18501843282533L69.78287430953979,151.05244021963986L72.19084098688761,148.30589535587396L74.59880766423542,150.06414544215036L77.00677434158325,149.81453748170475L79.41474101893107,148.15821823892807L81.8227076962789,144.04515517173L84.2306743736267,150.38663397868007L86.63864105097453,152.77695188335005L89.04660772832234,152.8800969783219L91.45457440567017,158.59750891208787L93.86254108301797,160.496193712711L96.2705077603658,156.37543778477743L98.67847443771363,160.18714730157555L101.08644111506145,156.87384621204225L103.49440779240926,163.76615370810464L105.90237446975708,162.81141514299887L108.31034114710491,155.0266602637519L110.71830782445271,159.17360950595577L113.12627450180054,160.20243012476797L115.53424117914835,162.19585660919736L117.94220785649618,162.28817737223113L120.35017453384398,162.47499100572915L122.75814121119181,162.38072818010355L125.16610788853963,146.4630539676954L127.57407456588746,153.07218728582492L129.98204124323527,154.51592905127058L132.3900079205831,152.45317857083197L134.7979745979309,156.4182715435263L137.20594127527872,159.55715182509445L139.61390795262656,164.8410338373653L142.02187462997438,164.96265316160418L144.4298413073222,162.59169661858078L146.83780798467,158.7101942722039L149.24577466201782,171.09093816085078L151.65374133936567,170.28277661971367L154.06170801671345,167.27983653711246L156.46967469406127,163.08139803123314L158.87764137140908,161.9136952549705L161.28560804875693,159.5552186027594L163.69357472610474,165.96215593887865L166.10154140345256,162.71950152968816L168.5095080808004,163.79780655786251L170.9174747581482,160.07696591999243L173.325441435496,165.51466766246054L175.73340811284382,162.27444336850886L178.14137479019166,164.45281270851774L180.54934146753948,167.12456740946575L182.9573081448873,165.45069265774248" fill="none"></path></g><g><path style="fill: none;" stroke="rgb(187, 187, 187)" stroke-width="2px" d="M26.43947411727905,25.944811219692923L28.84744079462687,33.45167701132737L31.25540747197469,37.70685315995722L33.663374149322514,36.64350146410728L36.07134082667033,36.22879876560709L38.479307504018145,47.47734550424324L40.88727418136596,47.26511828215117L43.29524085871379,45.585292070153905L45.703207536061605,47.42782276201803L48.11117421340943,57.66577330816519L50.51914089075724,61.33722496363834L52.927107568105065,58.74726476448569L55.33507424545288,69.3567360261255" fill="none"></path></g><g><path style="fill: none;" stroke="rgb(238, 51, 119)" stroke-width="2px" d="M26.43947411727905,19.690801721208203L28.84744079462687,19.365430644389328L31.25540747197469,22.229721668210406L33.663374149322514,21.327793843807264L36.07134082667033,21.30602611604692L38.479307504018145,23.93825612682362" fill="none"></path></g><g><path style="fill: none;" stroke="rgb(204, 51, 17)" stroke-width="2px" d="M26.43947411727905,15.417494903415077L28.84744079462687,17.10276338344093L31.25540747197469,21.65250120606577L33.663374149322514,21.32356877719817L36.07134082667033,21.79684743743667L38.479307504018145,23.830263627570165" fill="none"></path></g><g><path style="fill: none;" stroke="rgb(255, 112, 67)" stroke-width="2px" d="M26.43947411727905,5.076826785535646L28.84744079462687,14.62911812615147L31.25540747197469,23.392498458261407L33.663374149322514,22.949590031292832L36.07134082667033,23.60020439528486L38.479307504018145,27.143010133201923" fill="none"></path></g><g><path style="fill: none;" stroke="rgb(0, 153, 136)" stroke-width="2px" d="M26.43947411727905,30.623438338373575L28.84744079462687,39.599487580007015L31.25540747197469,53.45558305652333L33.663374149322514,51.73416133682126L36.07134082667033,61.59641996981608L38.479307504018145,71.33035148726007L40.88727418136596,72.66365436162712L43.29524085871379,70.6660370471571L45.703207536061605,71.41800922788664L48.11117421340943,77.39432451663836L50.51914089075724,86.61341615372818L52.927107568105065,91.14770485460717L55.33507424545288,91.3432730510988L57.7430409228007,102.10644968422831L60.15100760014852,104.26892877635962L62.55897427749634,108.38540966044458L64.96694095484416,116.75017025858683L67.37490763219198,120.53164049141527L69.78287430953979,118.96657345700687L72.19084098688761,121.13693217566679L74.59880766423542,120.85944131588259L77.00677434158325,119.42952262295857L79.41474101893107,120.55533364850717L81.8227076962789,113.0422445480394L84.2306743736267,123.1740621843382L86.63864105097453,119.12269081045375L89.04660772832234,120.49778992583876L91.45457440567017,128.19348132730187L93.86254108301797,129.71128548135798L96.2705077603658,123.66771949292641L98.67847443771363,129.14170383023932L101.08644111506145,124.79119037854913L103.49440779240926,137.1071470368873L105.90237446975708,134.45264708017092L108.31034114710491,127.88987926351412L110.71830782445271,127.64914154793013L113.12627450180054,132.31252494109668L115.53424117914835,133.87171201381074L117.94220785649618,138.00070861375067L120.35017453384398,139.8859443662917L122.75814121119181,137.65835937877L125.16610788853963,127.83656231725948L127.57407456588746,133.1023092650057L129.98204124323527,131.33687680739718L132.3900079205831,135.27535497159687L134.7979745979309,136.38742521411544L137.20594127527872,137.41431622540523L139.61390795262656,143.2542412299959L142.02187462997438,148.66994856340912L144.4298413073222,144.00396711044763L146.83780798467,139.54949825397443L149.24577466201782,156.26765511003427L151.65374133936567,150.9041511136142L154.06170801671345,145.35197351759422L156.46967469406127,137.69848210580184L158.87764137140908,142.58145830247878L161.28560804875693,137.84973235367093L163.69357472610474,144.6329451435614L166.10154140345256,140.09125339368984L168.5095080808004,143.72348440302002L170.9174747581482,139.8933973935324L173.325441435496,146.59007767200643L175.73340811284382,141.71492450424338L178.14137479019166,144.3174742672338L180.54934146753948,146.75914565211758L182.9573081448873,143.63925392098872" fill="none"></path></g><g><path style="fill: none;" stroke="rgb(51, 187, 238)" stroke-width="2px" d="M26.43947411727905,25.728002441011853L28.84744079462687,40.4526095959734L31.25540747197469,48.45468556676108L33.663374149322514,47.2032793782475L36.07134082667033,59.19623587486732L38.479307504018145,65.0757393134264L40.88727418136596,62.90646725254782L43.29524085871379,67.72667692380473L45.703207536061605,72.41564608294931L48.11117421340943,83.03098629827457L50.51914089075724,83.27560180187153L52.927107568105065,83.37005939945168L55.33507424545288,90.12107357679473L57.7430409228007,84.3205717278044L60.15100760014852,81.55582382577364L62.55897427749634,88.80500351419177L64.96694095484416,95.44649775908385L67.37490763219198,91.73329190286047L69.78287430953979,89.00518523275447L72.19084098688761,99.22791717891933L74.59880766423542,102.37107792049L77.00677434158325,103.88377209825488L79.41474101893107,98.50125453032251L81.8227076962789,100.47451173661382L84.2306743736267,107.31119842194859L86.63864105097453,107.23291969739279L89.04660772832234,113.36691344677787L91.45457440567017,117.56662381717139L93.86254108301797,114.98891051267655L96.2705077603658,107.52762044260344L98.67847443771363,111.13411564375812L101.08644111506145,106.06893451024577L103.49440779240926,125.88113558021446L105.90237446975708,113.13819231976898L108.31034114710491,109.53410864967016L110.71830782445271,103.72791505763202L113.12627450180054,118.6896772589418L115.53424117914835,119.13339782487212L117.94220785649618,116.10945087748485L120.35017453384398,114.73459132217816L122.75814121119181,117.89132275710918L125.16610788853963,107.38111606418728L127.57407456588746,109.26906271969186L129.98204124323527,111.15737377700079L132.3900079205831,106.74626675572522L134.7979745979309,106.56941824918117L137.20594127527872,110.86237874028366L139.61390795262656,118.41136417315766L142.02187462997438,124.24456415756288L144.4298413073222,119.00548496113215L146.83780798467,120.1919198250085L149.24577466201782,140.8805984582296L151.65374133936567,129.7310433619036L154.06170801671345,126.8567742496003L156.46967469406127,118.37323621540102L158.87764137140908,123.65517588712038L161.28560804875693,117.54824004734192L163.69357472610474,128.75758185112528L166.10154140345256,126.84724113300368L168.5095080808004,133.00449754016128L170.9174747581482,128.5807411666497L173.325441435496,138.0723509347272L175.73340811284382,127.58750032962915L178.14137479019166,126.14596281503692L180.54934146753948,126.30237335265598L182.9573081448873,124.3145648477021" fill="none"></path></g><g><path style="fill: none;" stroke="rgb(204, 51, 17)" stroke-width="2px" d="M26.43947411727905,20.020378435661627L28.84744079462687,22.511422610599293L31.25540747197469,35.28491162030466L33.663374149322514,31.973536417020803L36.07134082667033,31.89058271664281L38.479307504018145,37.33355635609149" fill="none"></path></g></g></g></g><g opacity="0.2"><g><g><g><path style="fill: none;" stroke="rgb(204, 51, 17)" stroke-width="2px" d="M26.43947411727905,25.24637008201998L28.84744079462687,34.4090806811183L31.25540747197469,44.030474227335475L33.663374149322514,35.88519106369185L36.07134082667033,39.293820889276816L26.43947411727905,24.678466883441246L28.84744079462687,35.63996922875148L31.25540747197469,46.81740659073111L33.663374149322514,37.268366855432845" fill="none"></path></g><g><path style="fill: none;" stroke="rgb(255, 112, 67)" stroke-width="2px" d="M26.43947411727905,27.926966661319597L28.84744079462687,32.78750471447992L31.25540747197469,39.053157354951594L33.663374149322514,33.076056723397045L36.07134082667033,33.16115903788395L38.479307504018145,36.649501224341606L40.88727418136596,47.142635549632445" fill="none"></path></g><g><path style="fill: none;" stroke="rgb(0, 153, 136)" stroke-width="2px" d="M26.43947411727905,19.090453528412667L28.84744079462687,27.84410665175423L31.25540747197469,26.026050032272764L33.663374149322514,22.429382410873217L36.07134082667033,26.19022254519004L38.479307504018145,29.66835329608952" fill="none"></path></g><g><path style="fill: none;" stroke="rgb(51, 187, 238)" stroke-width="2px" d="M26.43947411727905,23.219789632088663L28.84744079462687,32.62245843955097L31.25540747197469,34.52517522888692L33.663374149322514,41.459919025241646L36.07134082667033,41.143406631950796L38.479307504018145,49.82302158386901L40.88727418136596,67.16507101056013L43.29524085871379,58.42323999250911L45.703207536061605,32.58823433955135L48.11117421340943,135.62832498180714L50.51914089075724,63.74012394258838L52.927107568105065,76.96912292623082L55.33507424545288,68.81532321478662" fill="none"></path></g><g><path style="fill: none;" stroke="rgb(0, 119, 187)" stroke-width="2px" d="M26.43947411727905,17.639903316494014L28.84744079462687,21.67030429504038L31.25540747197469,19.544430793372243L33.663374149322514,22.20900489337336L36.07134082667033,21.251172238016437L38.479307504018145,18.413782750259628" fill="none"></path></g><g><path style="fill: none;" stroke="rgb(187, 187, 187)" stroke-width="2px" d="M26.43947411727905,21.91255744459167L28.84744079462687,46.58064866732556L31.25540747197469,53.587125166663185L33.663374149322514,65.70438305385537L36.07134082667033,35.72027111580073L38.479307504018145,84.65235442174671L40.88727418136596,87.9918096668649L43.29524085871379,93.37264667984718L45.703207536061605,99.66857570038619L48.11117421340943,162.1695566761443L50.51914089075724,101.20222804869272L52.927107568105065,118.9540665952347L55.33507424545288,93.29020776040792L57.7430409228007,125.36574802781487L60.15100760014852,120.01043434010145L62.55897427749634,118.82566042490393L64.96694095484416,112.7481876981644L67.37490763219198,123.04741002038142L69.78287430953979,115.07065238883374L72.19084098688761,126.84209000995779L74.59880766423542,130.29463953569606L77.00677434158325,102.65414680352123L79.41474101893107,120.53825502230106L81.8227076962789,117.44276886899806L84.2306743736267,132.82541224812562L86.63864105097453,138.77894235987114L89.04660772832234,133.30342323203294L91.45457440567017,127.37913782954578L93.86254108301797,149.28839392754875L96.2705077603658,139.86439690519896L98.67847443771363,142.4899885867754L101.08644111506145,124.63993603194476L103.49440779240926,140.90982683404L105.90237446975708,147.47769585802106L108.31034114710491,141.5930981999198L110.71830782445271,134.41996475592086L113.12627450180054,139.9871762587196L115.53424117914835,109.04924254875922L117.94220785649618,147.25224420450158L120.35017453384398,136.15228742572626L122.75814121119181,137.6773337445804L125.16610788853963,139.06866289388822L127.57407456588746,146.08844057758435L129.98204124323527,138.882235767806L132.3900079205831,151.54027864945542L134.7979745979309,141.7789726452115L137.20594127527872,136.85633432570305L139.61390795262656,140.79265850644978L142.02187462997438,139.61509049603532L144.4298413073222,145.34379006219737L146.83780798467,142.8357088439386L149.24577466201782,111.49204953384432L151.65374133936567,127.96516895805357L154.06170801671345,153.2044163005904L156.46967469406127,142.11803967838213L158.87764137140908,145.5178897748377L161.28560804875693,95.31365108889972L163.69357472610474,117.51537533399264L166.10154140345256,130.26986890902762L168.5095080808004,123.3807186460775L170.9174747581482,139.09122279739458L173.325441435496,144.6569446938722L175.73340811284382,137.13573288800384L178.14137479019166,143.99217497540835L180.54934146753948,145.48419203749572L182.9573081448873,140.85140057904218L185.3652748222351,132.4216078716921L187.77324149958295,133.48119695602358L190.18120817693074,166.88500549454002L192.58917485427855,144.51747438047786L194.99714153162637,149.12658478296427L197.4051082089742,145.5596934971073L199.81307488632203,153.53200336419795L202.22104156366984,158.35236941932735L204.6290082410177,138.21935569128308L207.03697491836547,139.84011579580212L209.4449415957133,148.52491541989806L211.8529082730611,158.58340841245766L214.26087495040895,153.28925543374848L216.66884162775676,129.26016847738705L219.07680830510458,155.2534145361105L221.4847749824524,139.26435400274485L223.89274165980024,142.5646899751474L226.30070833714802,129.3133311058085L228.70867501449584,148.97032876441787L231.11664169184365,145.49429820052237L233.5246083691915,147.37575520211632L235.9325750465393,139.8882516608431L238.34054172388713,150.8597706875282L240.74850840123497,129.24450392469575L243.15647507858276,137.1485129733313L245.56444175593057,148.5459909807099L247.9724084332784,135.19908676175655L250.38037511062623,126.05848339427902L252.78834178797405,163.78634800622476L255.19630846532186,140.6510827424249L257.6042751426697,158.19257624372162L260.0122418200175,145.0959153594625L262.4202084973653,152.45629705528958" fill="none"></path></g><g><path style="fill: none;" stroke="rgb(238, 51, 119)" stroke-width="2px" d="M26.43947411727905,13.942647791219857L28.84744079462687,17.552842932920697L31.25540747197469,16.367537391438958L33.663374149322514,18.443838058010755L36.07134082667033,18.16011805829075L38.479307504018145,18.15191732808475" fill="none"></path></g><g><path style="fill: none;" stroke="rgb(204, 51, 17)" stroke-width="2px" d="M26.43947411727905,19.356603542620718L28.84744079462687,40.93417747553971L31.25540747197469,38.78154369635726L33.663374149322514,38.10510451777358L36.07134082667033,37.57681537280868L38.479307504018145,47.07018699343516L40.88727418136596,67.07571568579951L43.29524085871379,59.42791892439581L45.703207536061605,51.41811098157504L48.11117421340943,123.31469697792997L50.51914089075724,55.316437042066894L52.927107568105065,63.11742639134954L55.33507424545288,67.55021056715381" fill="none"></path></g><g><path style="fill: none;" stroke="rgb(255, 112, 67)" stroke-width="2px" d="M26.43947411727905,13.513177971599903L28.84744079462687,33.104059216783384L31.25540747197469,31.425720301145333L33.663374149322514,40.0651000915137L36.07134082667033,32.44370568101712L38.479307504018145,33.93971257204939" fill="none"></path></g><g><path style="fill: none;" stroke="rgb(0, 153, 136)" stroke-width="2px" d="M26.43947411727905,19.7178778163171L28.84744079462687,28.44724456663525L31.25540747197469,31.80838595324812L33.663374149322514,30.02412181638701L36.07134082667033,30.031785656682217L38.479307504018145,49.69734723573137L40.88727418136596,56.668262673918974L43.29524085871379,55.34119714148218L45.703207536061605,58.787156606746834L48.11117421340943,129.5143068957478L50.51914089075724,69.1437735131527L52.927107568105065,70.09716366767915L55.33507424545288,74.36816501703183" fill="none"></path></g><g><path style="fill: none;" stroke="rgb(51, 187, 238)" stroke-width="2px" d="M26.43947411727905,23.146919985765265L28.84744079462687,39.12696392680559L31.25540747197469,48.123733434456966L33.663374149322514,38.93325194154167L36.07134082667033,47.78968263741362L38.479307504018145,54.028827654446644L40.88727418136596,69.9882065975481L43.29524085871379,88.73386521434972L45.703207536061605,88.40918367261233L48.11117421340943,135.97927728378724L50.51914089075724,79.04339183294414L52.927107568105065,91.60948968555735L55.33507424545288,99.89646967663711" fill="none"></path></g><g><path style="fill: none;" stroke="rgb(0, 119, 187)" stroke-width="2px" d="M26.43947411727905,-31.549739765087345L28.84744079462687,63.8029611166572L31.25540747197469,74.67193943400784L33.663374149322514,87.56377155367372L36.07134082667033,85.47815426806173L38.479307504018145,103.97559078277445L40.88727418136596,98.91354004976401L43.29524085871379,120.17960203463971L45.703207536061605,70.50518947262694L48.11117421340943,23.377193121228714L50.51914089075724,103.0552667304008L52.927107568105065,98.1810853571545L55.33507424545288,119.83070781065098L57.7430409228007,132.76882826242954L60.15100760014852,126.46402476748275L62.55897427749634,117.35896140664894L64.96694095484416,135.36678064085342L67.37490763219198,126.62067029439581L69.78287430953979,123.33972025867408L72.19084098688761,133.18533903341844L74.59880766423542,148.02643945586178L77.00677434158325,141.6635149962586L79.41474101893107,139.35700435774228L81.8227076962789,145.00772855980185L84.2306743736267,148.24980144963044L86.63864105097453,140.7543708867332L72.19084098688761,133.18533903341844L74.59880766423542,148.02643945586178" fill="none"></path></g><g><path style="fill: none;" stroke="rgb(187, 187, 187)" stroke-width="2px" d="M26.43947411727905,21.657039956067905L28.84744079462687,23.29453312947325L31.25540747197469,21.36046618024838L33.663374149322514,20.19771001501985L36.07134082667033,20.66638332538068L38.479307504018145,22.582396035448568" fill="none"></path></g><g><path style="fill: none;" stroke="rgb(238, 51, 119)" stroke-width="2px" d="M26.43947411727905,19.11026581884616L28.84744079462687,16.65472085744622L31.25540747197469,18.238335549215748L33.663374149322514,17.989050194558416L36.07134082667033,17.696371502405412L38.479307504018145,18.200584819409954" fill="none"></path></g><g><path style="fill: none;" stroke="rgb(204, 51, 17)" stroke-width="2px" d="M26.43947411727905,24.94932257980858L28.84744079462687,45.29935563159697L31.25540747197469,56.024942233753876L33.663374149322514,52.8133720599354L36.07134082667033,62.89523818630741L38.479307504018145,78.48736337592172L40.88727418136596,84.91646214884312L43.29524085871379,109.8317332756038L45.703207536061605,107.1534053193586L48.11117421340943,161.5134482552119L50.51914089075724,111.70080496386353L52.927107568105065,121.58770636184644L55.33507424545288,127.76497218484755L57.7430409228007,111.57887831784828L60.15100760014852,113.30434248222465L62.55897427749634,127.05898300666408L64.96694095484416,117.00673530703736L67.37490763219198,130.54184049422915L69.78287430953979,103.17118231486583L72.19084098688761,116.37534750832091L74.59880766423542,135.8068987770374L77.00677434158325,125.64186735075859L79.41474101893107,142.3850318728424L81.8227076962789,130.35229203758715L84.2306743736267,138.7899170212829L86.63864105097453,132.56882624340685L89.04660772832234,131.8678006650849L91.45457440567017,126.95237351398609L93.86254108301797,153.74728569117187L96.2705077603658,146.16736865809716L98.67847443771363,148.54276964124514L101.08644111506145,141.55937940807152L103.49440779240926,138.0424399384244L105.90237446975708,139.10245537650857L108.31034114710491,135.3024064878243L110.71830782445271,137.17488374247895L113.12627450180054,139.04274479662612L115.53424117914835,141.2671744423104L117.94220785649618,147.1880595420292L120.35017453384398,117.09869612695329L122.75814121119181,135.7817123238694L125.16610788853963,124.09912998298122L127.57407456588746,145.812105445951L129.98204124323527,143.57330083608664L132.3900079205831,150.03702900825405L134.7979745979309,144.4968988641908L137.20594127527872,127.55999603871018L139.61390795262656,151.01636620998877L142.02187462997438,133.09900503031267L144.4298413073222,148.4728265712982L146.83780798467,151.64931467398512L149.24577466201782,126.30066285305824L151.65374133936567,132.21896877575463L154.06170801671345,147.45859415717538L156.46967469406127,132.58646991969087L158.87764137140908,141.0401858098306L161.28560804875693,123.49957659779872L163.69357472610474,97.36009646553029L166.10154140345256,146.86798367354615L168.5095080808004,131.4709653302385L170.9174747581482,153.32853261526142L173.325441435496,158.8736737318254L175.73340811284382,133.1548205265286L178.14137479019166,147.85066064634358L180.54934146753948,146.52951669380522L182.9573081448873,149.52524659623268L185.3652748222351,132.77110214911053L187.77324149958295,150.27753463378198L190.18120817693074,171.38804066244595L192.58917485427855,151.03533368835676L194.99714153162637,148.65235834656536L197.4051082089742,137.12938495435273L199.81307488632203,158.50216170443795L202.22104156366984,164.73351392232465L204.6290082410177,144.61766751235925L207.03697491836547,144.3760933706363L209.4449415957133,144.0731453430328L211.8529082730611,161.8644242435116L214.26087495040895,149.35883177839386L216.66884162775676,146.5895746730417L219.07680830510458,147.3095966796778L221.4847749824524,144.06891865089196L223.89274165980024,147.08431872583535L226.30070833714802,135.21915696989228L228.70867501449584,155.91160998498046L231.11664169184365,149.15894555915585L233.5246083691915,151.32425415113423L235.9325750465393,149.17149930854052L238.34054172388713,150.3900446518521L240.74850840123497,139.28296092269235L243.15647507858276,152.16531588270746L245.56444175593057,152.52897457924294L247.9724084332784,156.3879892446491L250.38037511062623,132.96639322234736L252.78834178797405,154.92702757936237L255.19630846532186,152.19385789781788L257.6042751426697,168.3954715677776L260.0122418200175,141.21226955349218L262.4202084973653,155.44366568690046" fill="none"></path></g><g><path style="fill: none;" stroke="rgb(255, 112, 67)" stroke-width="2px" d="M26.43947411727905,19.074315249329487L28.84744079462687,31.90743687816243L31.25540747197469,35.51854789088756L33.663374149322514,41.718963143571585L36.07134082667033,38.74204544252811L38.479307504018145,50.422538123665475" fill="none"></path></g><g><path style="fill: none;" stroke="rgb(187, 187, 187)" stroke-width="2px" d="M26.43947411727905,11.961671401946292L28.84744079462687,10.829633761417513L31.25540747197469,19.71994115793504L33.663374149322514,18.770235542012045L36.07134082667033,18.873897403807263L38.479307504018145,20.21812235888305" fill="none"></path></g><g><path style="fill: none;" stroke="rgb(51, 187, 238)" stroke-width="2px" d="M26.43947411727905,20.471397542485278L28.84744079462687,27.087881421525793L31.25540747197469,26.710816268100274L33.663374149322514,23.71918146714924L36.07134082667033,24.33304665299292L38.479307504018145,29.260159055091293" fill="none"></path></g><g><path style="fill: none;" stroke="rgb(0, 119, 187)" stroke-width="2px" d="M26.43947411727905,20.911099852169713L28.84744079462687,27.05707867880082L31.25540747197469,27.04055089135099L33.663374149322514,24.429602618910025L36.07134082667033,24.95832338125419L38.479307504018145,29.85665427323292" fill="none"></path></g><g><path style="fill: none;" stroke="rgb(187, 187, 187)" stroke-width="2px" d="M26.43947411727905,27.497423150927574L28.84744079462687,36.2848898113958L31.25540747197469,45.29487102175389L33.663374149322514,37.06523297859721L36.07134082667033,41.05127211235785L38.479307504018145,53.27985570164046L40.88727418136596,73.13723436038603L43.29524085871379,81.6588878787471L45.703207536061605,76.95345837353952L48.11117421340943,139.3246225270444L50.51914089075724,75.7403819382408L52.927107568105065,86.34618945402562L55.33507424545288,94.93485946595715L57.7430409228007,79.92035412958157L60.15100760014852,90.73314849685593L62.55897427749634,95.51623754857141L64.96694095484416,91.50009047079388L67.37490763219198,88.79316523135921L69.78287430953979,80.85736387820234L72.19084098688761,94.93209079837797L74.59880766423542,101.02630712125696L77.00677434158325,99.9941204768821L79.41474101893107,107.05167520851691L81.8227076962789,87.01622806269242L84.2306743736267,107.30766642343255L86.63864105097453,105.9464294272619L89.04660772832234,124.240905764816L91.45457440567017,99.45579885966262L93.86254108301797,128.9550202538746L96.2705077603658,118.89790896329131L98.67847443771363,117.83007177611464L101.08644111506145,118.89461919668108L103.49440779240926,112.43244905798028L105.90237446975708,131.45960642408667L108.31034114710491,115.42577348306233L110.71830782445271,121.00765471312943L113.12627450180054,119.66325079475004L115.53424117914835,103.86931816219735L117.94220785649618,118.34289112257156L120.35017453384398,104.95138293200998L122.75814121119181,118.54598289039458L125.16610788853963,103.72710549935672L127.57407456588746,129.39539104413424L129.98204124323527,120.66716123715659L132.3900079205831,147.96549718736046L134.7979745979309,122.86638863879315L137.20594127527872,115.12107266780887L139.61390795262656,120.59409157302329L142.02187462997438,121.58150580973947L144.4298413073222,126.3920604649305L146.83780798467,126.93981450097485L149.24577466201782,126.15039684155576L151.65374133936567,120.64842799017126L154.06170801671345,129.17346602042093L156.46967469406127,115.65364114118037L158.87764137140908,126.71720520580661L161.28560804875693,112.35578433689531L163.69357472610474,122.13092315178196L166.10154140345256,129.38942209159663L168.5095080808004,118.67375216190962L170.9174747581482,129.2853391396753L173.325441435496,140.4995060879049L175.73340811284382,128.5138388651222L178.14137479019166,127.6276020584572L180.54934146753948,133.78609778908694L182.9573081448873,134.32280347294747L185.3652748222351,118.10358560390304L187.77324149958295,132.35521248605764L190.18120817693074,157.56983658347016L192.58917485427855,122.26695631702191L194.99714153162637,135.22938945995676L197.4051082089742,132.34880665251418L199.81307488632203,154.318041775355L202.22104156366984,151.61330094094953L204.6290082410177,139.59835216352243L207.03697491836547,111.70535273722552L209.4449415957133,138.2854457865761L211.8529082730611,149.37575433783692L214.26087495040895,137.77673733247534L216.66884162775676,130.31946279863027L219.07680830510458,137.27989309267772L221.4847749824524,138.4575032121048L223.89274165980024,127.81257642360433L226.30070833714802,110.1691791117889L228.70867501449584,133.39853170064154L231.11664169184365,139.35456203501084L233.5246083691915,138.35369396876544L235.9325750465393,139.27303898659588L238.34054172388713,121.56689398236344L240.74850840123497,126.56481268916727L243.15647507858276,137.12639521445735L245.56444175593057,138.312521881685L247.9724084332784,138.45133950538386L250.38037511062623,140.7689879777358L252.78834178797405,160.59091611148946L255.19630846532186,136.4053152188794L257.6042751426697,151.23543045265782L260.0122418200175,135.8153626885722L262.4202084973653,145.29556471550458" fill="none"></path></g><g><path style="fill: none;" stroke="rgb(238, 51, 119)" stroke-width="2px" d="M26.43947411727905,-43.07577658796743L28.84744079462687,37.99897927874062L31.25540747197469,34.111180471401525L33.663374149322514,33.49435712742192L36.07134082667033,32.7423849074672L38.479307504018145,41.86621836067238" fill="none"></path></g><g><path style="fill: none;" stroke="rgb(204, 51, 17)" stroke-width="2px" d="M26.43947411727905,23.59127534134322L28.84744079462687,29.265612172224422L31.25540747197469,32.63361732789289L33.663374149322514,31.801395857154688L36.07134082667033,30.532356544095904L38.479307504018145,37.50672492131761L40.88727418136596,43.598625248503L43.29524085871379,51.45585118412768L45.703207536061605,41.38483865575617L48.11117421340943,118.5605315542517L50.51914089075724,49.55960865548067L52.927107568105065,46.8112586748899L55.33507424545288,58.38641566098076L57.7430409228007,42.85964365893878L60.15100760014852,49.3197136106356L62.55897427749634,58.190577170579985L64.96694095484416,41.376574762031254L67.37490763219198,51.01569620255768L69.78287430953979,37.11308987142965L72.19084098688761,46.081183141492915L74.59880766423542,54.89498898934934L77.00677434158325,44.536203468794014L79.41474101893107,54.26541714180175L81.8227076962789,40.36281081067372L84.2306743736267,45.31471489394684L86.63864105097453,45.941602291940484L89.04660772832234,72.45417353956927L91.45457440567017,43.43773723856938L93.86254108301797,62.3533794120286L96.2705077603658,67.46280278422645L98.67847443771363,62.87479426068475L101.08644111506145,61.55528729601164L103.49440779240926,60.47700181008085L105.90237446975708,72.00589151856533L108.31034114710491,49.66891312496577L110.71830782445271,55.65608833778751L113.12627450180054,60.88516446931962L115.53424117914835,55.45352293262212L117.94220785649618,54.03141735872222L120.35017453384398,44.204626576241566L122.75814121119181,65.50900776259331L125.16610788853963,46.393231979446995L127.57407456588746,72.69781628653672L129.98204124323527,57.23555529181485L132.3900079205831,102.11453033416396L134.7979745979309,64.20270197337376L137.20594127527872,49.27701507184801L139.61390795262656,60.43430327129326L142.02187462997438,47.47397031536238L144.4298413073222,83.83750291871056L146.83780798467,68.52359197541736L149.24577466201782,49.84096002324131L151.65374133936567,63.55255987316568L154.06170801671345,78.207591096134L156.46967469406127,58.20033593425259L158.87764137140908,63.82252075301503L161.28560804875693,52.06096822260142L163.69357472610474,44.59276639998379L166.10154140345256,51.5791674275591L168.5095080808004,47.79777809508809L170.9174747581482,69.16541754563477L173.325441435496,81.92316404189395L175.73340811284382,57.35575546831305L178.14137479019166,75.4988656964102L180.54934146753948,65.16278746090538L182.9573081448873,62.60970749904513L185.3652748222351,55.412024500693946L187.77324149958295,60.86187818534572L190.18120817693074,95.28872255343398L192.58917485427855,58.658692536523716L194.99714153162637,73.38090868911294L197.4051082089742,71.14584651774439L199.81307488632203,79.53693051525178L202.22104156366984,105.20462653385275L204.6290082410177,80.16631287224263L207.03697491836547,62.076638981148875L209.4449415957133,62.550512754567166L211.8529082730611,90.74565487360141L214.26087495040895,93.33732774551967L216.66884162775676,66.15668648556365L219.07680830510458,77.87808807245264L221.4847749824524,62.74474057523557L223.89274165980024,61.532401047657544L226.30070833714802,51.914049877601514L228.70867501449584,71.31210342678591L231.11664169184365,95.63603768944981L233.5246083691915,72.69693199727189L235.9325750465393,58.83479242726307L238.34054172388713,72.64101122852443L240.74850840123497,55.202500581194585L243.15647507858276,75.00231621970087L245.56444175593057,72.66288686057587L247.9724084332784,72.48000741880614L250.38037511062623,80.251309914198L252.78834178797405,102.81800349884392L255.19630846532186,82.76378626064806L257.6042751426697,87.97243952106382L260.0122418200175,60.40000548052157L262.4202084973653,90.34549292675874" fill="none"></path></g><g><path style="fill: none;" stroke="rgb(0, 119, 187)" stroke-width="2px" d="M26.43947411727905,22.55645688368017L28.84744079462687,35.22447960131839L31.25540747197469,56.153564212774285L33.663374149322514,55.40032872244123L36.07134082667033,44.5752490507376L38.479307504018145,84.45341039166587L40.88727418136596,96.17089584038203L43.29524085871379,89.9443203636134L45.703207536061605,100.30180050477779L48.11117421340943,157.35068285914932L50.51914089075724,112.88768959331819L52.927107568105065,117.65362974964782L55.33507424545288,120.96888810339439L57.7430409228007,121.59971269406716L60.15100760014852,117.1002541604199L62.55897427749634,108.92149959537707L64.96694095484416,128.56965436133814L67.37490763219198,117.62567989252724L69.78287430953979,106.98025305950202L72.19084098688761,120.7165866907088L74.59880766423542,120.54840329434032L77.00677434158325,117.8033167622269L79.41474101893107,137.37439098060347L81.8227076962789,117.51517531618273L84.2306743736267,136.66959138202625L86.63864105097453,128.6704528102758L89.04660772832234,133.62407283581283L91.45457440567017,131.62785298397407L93.86254108301797,157.17073788919592L96.2705077603658,148.96012259248627L98.67847443771363,143.89400833975887L101.08644111506145,146.33807333159572L103.49440779240926,141.15882268923562L105.90237446975708,154.75584391584536L108.31034114710491,147.122680036324L110.71830782445271,147.96514452437984L113.12627450180054,142.5948400281769L115.53424117914835,135.34477341813758L117.94220785649618,147.11350553520137L120.35017453384398,114.57718739729816L122.75814121119181,122.0482631600265L125.16610788853963,123.20873491132087L127.57407456588746,149.6983251653172L129.98204124323527,151.6982085012531L132.3900079205831,157.01259749233517L134.7979745979309,149.13031669420693L137.20594127527872,127.70908299785955L139.61390795262656,141.20988513065308L142.02187462997438,134.83221725300947L144.4298413073222,153.81986846984685L146.83780798467,156.69650092554386L149.24577466201782,143.9534083656733L151.65374133936567,128.66168887202613L154.06170801671345,141.35809832779077L156.46967469406127,142.4803877319001L158.87764137140908,143.7061705617542L161.28560804875693,129.65192967621383L163.69357472610474,138.89864775547116L166.10154140345256,151.96006339617483L168.5095080808004,121.0271827677278L170.9174747581482,155.60968836455933L173.325441435496,158.71227778192716L175.73340811284382,140.73889582459864L178.14137479019166,133.22428987008365L180.54934146753948,157.55842504105257L182.9573081448873,152.4719142353417L185.3652748222351,130.31785739252447L187.77324149958295,145.7053906807415L190.18120817693074,173.25034069511517L192.58917485427855,142.3287900228738L194.99714153162637,157.20462511709465L197.4051082089742,151.29344614478268L199.81307488632203,167.09216867751988L202.22104156366984,171.7104114721163L204.6290082410177,157.63314748393086L207.03697491836547,145.66955064738292L209.4449415957133,154.32786107073323L211.8529082730611,151.75236595509747L214.26087495040895,149.22098792561164L216.66884162775676,157.43531407905763L219.07680830510458,149.35716847239573L221.4847749824524,157.74862355557676L223.89274165980024,152.2849265330291L226.30070833714802,147.45350423027602L228.70867501449584,153.49394734405072L231.11664169184365,136.32430274224234L233.5246083691915,157.82876490201542L235.9325750465393,159.89637005748304L238.34054172388713,149.20358111252355L240.74850840123497,140.01533666090322L243.15647507858276,155.06312653993453L245.56444175593057,160.8319349406086L247.9724084332784,160.39415122281125L250.38037511062623,155.79780511477256L252.78834178797405,167.36771952879334L255.19630846532186,151.71113070449812L257.6042751426697,162.3597288725356L260.0122418200175,144.96656173634798L262.4202084973653,163.50846536837795" fill="none"></path></g><g><path style="fill: none;" stroke="rgb(0, 153, 136)" stroke-width="2px" d="M26.43947411727905,20.07595180505504L28.84744079462687,19.79854815722669L31.25540747197469,23.234233023414248L33.663374149322514,18.740053907223086L36.07134082667033,19.71166673695697L38.479307504018145,29.96041088030651" fill="none"></path></g><g><path style="fill: none;" stroke="rgb(51, 187, 238)" stroke-width="2px" d="M26.43947411727905,25.760857998101613L28.84744079462687,55.647866553075204L31.25540747197469,53.72317938640944L33.663374149322514,49.1794800713877L36.07134082667033,78.48814239265502L38.479307504018145,82.14050971048582L40.88727418136596,71.63438475480447L43.29524085871379,78.70322470181904L45.703207536061605,80.45747563994163L48.11117421340943,89.23882596632811L50.51914089075724,89.9326666943733L52.927107568105065,78.52422981646268L55.33507424545288,105.88280270920663L57.7430409228007,88.74832966018161L60.15100760014852,88.2661498840258L62.55897427749634,101.67384898993632L64.96694095484416,105.09851182207294L67.37490763219198,103.8432105743785L69.78287430953979,99.89654336740918L72.19084098688761,75.21422982566591L74.59880766423542,106.1422626540361L77.00677434158325,115.10212887576049L79.41474101893107,107.0166036646385L81.8227076962789,114.48383697996607L84.2306743736267,121.21736285955896L86.63864105097453,108.84238202430751" fill="none"></path></g><g><path style="fill: none;" stroke="rgb(0, 119, 187)" stroke-width="2px" d="M26.43947411727905,40.20946031399748L28.84744079462687,59.725103280898196L31.25540747197469,89.21486593815243L33.663374149322514,83.96207190526715L36.07134082667033,125.136548672173L38.479307504018145,123.63458335585628L40.88727418136596,130.4852249267736L43.29524085871379,127.42615780575258L45.703207536061605,114.97002237594651L48.11117421340943,143.08010428950647L50.51914089075724,134.86375690345514L52.927107568105065,131.72327200655067L55.33507424545288,142.34684952565735L57.7430409228007,153.46878194538905L60.15100760014852,141.08588461576673L62.55897427749634,143.48139791606306L64.96694095484416,160.7346657532904L67.37490763219198,158.10586589131563L69.78287430953979,147.85389777668806L72.19084098688761,144.18632910530468L74.59880766423542,152.70142414495157L77.00677434158325,149.44013375449262L79.41474101893107,145.67377207589718L81.8227076962789,137.87560929408605L84.2306743736267,159.8988071165879L86.63864105097453,156.36241854674105L89.04660772832234,153.03481435685958L91.45457440567017,167.17361803516278L93.86254108301797,163.3442191646886L96.2705077603658,150.19430617035627L98.67847443771363,165.9047103127684L101.08644111506145,151.9038952369783L103.49440779240926,174.10461412939512L105.90237446975708,161.37930736372616L108.31034114710491,143.34952827944502L110.71830782445271,165.39403326232807L113.12627450180054,161.74566103706874L115.53424117914835,165.18599631733653L117.94220785649618,162.42665851626757L120.35017453384398,162.75521145535188L122.75814121119181,162.23933394185408L125.16610788853963,122.58654266823336L127.57407456588746,162.98588725824843L129.98204124323527,156.6815416988138L132.3900079205831,149.35905285071007L134.7979745979309,162.36591100194957L137.20594127527872,164.26547224715299L139.61390795262656,172.76685685547505L142.02187462997438,165.14508214795833L144.4298413073222,159.03526180409366L146.83780798467,152.88794075268558L149.24577466201782,189.66205399373106L151.65374133936567,169.07053430801156L154.06170801671345,162.77542641321847L156.46967469406127,156.78374027242077L158.87764137140908,160.1621410905776L161.28560804875693,156.01750362444406L163.69357472610474,175.57256194305535L166.10154140345256,157.85551991590316L168.5095080808004,165.4152641001239L170.9174747581482,154.49570496318753L173.325441435496,173.67122027616247L175.73340811284382,157.4141069275814L178.14137479019166,167.72036671853104L180.54934146753948,171.13219946088773L182.9573081448873,162.93988053015758" fill="none"></path></g><g><path style="fill: none;" stroke="rgb(187, 187, 187)" stroke-width="2px" d="M26.43947411727905,25.944811219692923L28.84744079462687,37.955796486308L31.25540747197469,41.79182226264183L33.663374149322514,35.39299986978776L36.07134082667033,35.6873629224452L38.479307504018145,63.03813512060296L40.88727418136596,46.96162995892391L43.29524085871379,43.13608932673023L45.703207536061605,50.14519763935604L48.11117421340943,72.8679366974853L50.51914089075724,66.81110265055176L52.927107568105065,54.87641891478788L55.33507424545288,85.23630115413025" fill="none"></path></g><g><path style="fill: none;" stroke="rgb(238, 51, 119)" stroke-width="2px" d="M26.43947411727905,19.690801721208203L28.84744079462687,19.17020799829797L31.25540747197469,24.979441051078624L33.663374149322514,20.267126722309143L36.07134082667033,21.277606170683015L38.479307504018145,27.579577834531705" fill="none"></path></g><g><path style="fill: none;" stroke="rgb(204, 51, 17)" stroke-width="2px" d="M26.43947411727905,15.417494903415077L28.84744079462687,18.113924471456443L31.25540747197469,26.020249515785594L33.663374149322514,20.936744240849833L36.07134082667033,22.414760056244035L38.479307504018145,26.643210248353256" fill="none"></path></g><g><path style="fill: none;" stroke="rgb(255, 112, 67)" stroke-width="2px" d="M26.43947411727905,5.076826785535646L28.84744079462687,20.360492930520962L31.25540747197469,31.805343577086973L33.663374149322514,22.428729721177746L36.07134082667033,24.449646508912878L38.479307504018145,32.043985878806865" fill="none"></path></g><g><path style="fill: none;" stroke="rgb(0, 153, 136)" stroke-width="2px" d="M26.43947411727905,30.623438338373575L28.84744079462687,44.98511712498711L31.25540747197469,66.757434713979L33.663374149322514,49.70976939445163L36.07134082667033,74.47258484105404L38.479307504018145,84.79588299123142L40.88727418136596,74.57029880481795L43.29524085871379,67.75349182553359L45.703207536061605,72.52702213138636L48.11117421340943,86.26845621674565L50.51914089075724,100.35843712673963L52.927107568105065,97.9244625070497L55.33507424545288,91.63598678174284L57.7430409228007,118.23012845042578L60.15100760014852,107.5101055015601L62.55897427749634,114.55722772532053L64.96694095484416,129.29377146945066L67.37490763219198,126.20288572577542L69.78287430953979,116.61921132760457L72.19084098688761,124.39227187427295L74.59880766423542,120.44322024446453L77.00677434158325,117.28469163565623L79.41474101893107,122.2440279596552L81.8227076962789,101.77269989704072L84.2306743736267,138.37171662616296L86.63864105097453,113.04565102687533L89.04660772832234,122.56043508041452L91.45457440567017,139.73700661479742L93.86254108301797,131.98799031432995L96.2705077603658,114.60237385046614L98.67847443771363,137.3526785209759L101.08644111506145,118.2654210666204L103.49440779240926,155.5810805541167L105.90237446975708,130.4708973352327L108.31034114710491,118.04572782057548L110.71830782445271,127.28803498076181L113.12627450180054,139.3075999586964L115.53424117914835,136.21049260840786L117.94220785649618,144.19420349066294L120.35017453384398,142.71379798880307L122.75814121119181,134.316981901954L125.16610788853963,113.10386673681009L127.57407456588746,141.00092968282397L129.98204124323527,128.688728121749L132.3900079205831,141.183072216873L134.7979745979309,138.05553057771985L137.20594127527872,138.95465274224384L139.61390795262656,152.0141287365541L142.02187462997438,156.79350956334653L144.4298413073222,137.00499493109973L146.83780798467,132.86779496931862L149.24577466201782,181.3448903940024L151.65374133936567,142.85889511900754L154.06170801671345,137.02370712357876L156.46967469406127,126.21824498812529L158.87764137140908,149.9059225974896L161.28560804875693,130.7521434304618L163.69357472610474,154.80776432839477L166.10154140345256,133.27871576888342L168.5095080808004,149.17183091701483L170.9174747581482,134.1482668793013L173.325441435496,156.6350980897171L175.73340811284382,134.402194752599L178.14137479019166,148.22129891171934L180.54934146753948,150.42165272944325L182.9573081448873,138.95941632429546" fill="none"></path></g><g><path style="fill: none;" stroke="rgb(51, 187, 238)" stroke-width="2px" d="M26.43947411727905,25.728002441011853L28.84744079462687,49.28737388895033L31.25540747197469,56.13667849871726L33.663374149322514,45.731625700555554L36.07134082667033,74.85423987685417L38.479307504018145,73.20920919019144L40.88727418136596,59.80437349713847L43.29524085871379,74.75458889851015L45.703207536061605,79.33096480731805L48.11117421340943,98.79352936382256L50.51914089075724,83.64030641265308L52.927107568105065,83.5112317617471L55.33507424545288,100.22555161019235L57.7430409228007,75.63118274128723L60.15100760014852,77.41195183010163L62.55897427749634,99.67366036365897L64.96694095484416,105.4059286686398L67.37490763219198,86.16442590109008L69.78287430953979,84.91344082718828L72.19084098688761,114.56108069997444L74.59880766423542,107.08564665444086L77.00677434158325,106.15276358905598L79.41474101893107,90.42758444684395L81.8227076962789,103.43437417093796L84.2306743736267,117.56617985770785L86.63864105097453,107.11550194438209L89.04660772832234,122.56788837564667L91.45457440567017,123.86618292521698L93.86254108301797,111.12234293037258L96.2705077603658,96.33568946123532L98.67847443771363,116.54385724953713L101.08644111506145,98.47116381777877L103.49440779240926,155.59943481998855L105.90237446975708,94.02377834185162L108.31034114710491,104.12798329941378L110.71830782445271,95.01862481929365L113.12627450180054,141.13232032942355L115.53424117914835,119.79897866964856L117.94220785649618,111.57353047324668L120.35017453384398,112.67230199381274L122.75814121119181,122.62641990317601L125.16610788853963,91.615806037449L127.57407456588746,112.10098270158593L129.98204124323527,113.98984036214628L132.3900079205831,100.12960622495811L134.7979745979309,106.30414548939265L137.20594127527872,117.30181947653577L139.61390795262656,129.73484232204495L142.02187462997438,132.99436413397424L144.4298413073222,111.14686616659193L146.83780798467,121.97157212080864L149.24577466201782,171.91361640791072L151.65374133936567,113.00671071746328L154.06170801671345,122.54537058115292L156.46967469406127,105.64792916411542L158.87764137140908,131.5780853946944L161.28560804875693,108.38783628767769L163.69357472610474,145.5715945567965L166.10154140345256,123.98173005582166L168.5095080808004,142.24038215089692L170.9174747581482,121.94510660638261L173.325441435496,152.30976558684304L175.73340811284382,111.86022442198234L178.14137479019166,123.98365654314861L180.54934146753948,126.53698915908453L182.9573081448873,121.3328520902713" fill="none"></path></g><g><path style="fill: none;" stroke="rgb(204, 51, 17)" stroke-width="2px" d="M26.43947411727905,20.020378435661627L28.84744079462687,24.006049115561922L31.25540747197469,47.54746106962179L33.663374149322514,28.079359177958935L36.07134082667033,31.782278365429278L38.479307504018145,44.86314836995925" fill="none"></path></g></g></g></g></g></g><g transform="translate(41, 176)" clip-path="url(#clip_1)"><clipPath id="clip_1"><rect width="288" height="23"></rect></clipPath><g><g><line x1="0" y1="0" x2="0" y2="5" style="visibility: inherit;" fill="rgb(0, 0, 0)" stroke="rgb(204, 204, 204)" stroke-width="1px"></line><line x1="24.079666773478188" y1="0" x2="24.079666773478188" y2="5" style="visibility: inherit;" fill="rgb(0, 0, 0)" stroke="rgb(204, 204, 204)" stroke-width="1px"></line><line x1="48.159333546956375" y1="0" x2="48.159333546956375" y2="5" style="visibility: inherit;" fill="rgb(0, 0, 0)" stroke="rgb(204, 204, 204)" stroke-width="1px"></line><line x1="72.23900032043457" y1="0" x2="72.23900032043457" y2="5" style="visibility: inherit;" fill="rgb(0, 0, 0)" stroke="rgb(204, 204, 204)" stroke-width="1px"></line><line x1="96.31866709391275" y1="0" x2="96.31866709391275" y2="5" style="visibility: inherit;" fill="rgb(0, 0, 0)" stroke="rgb(204, 204, 204)" stroke-width="1px"></line><line x1="120.39833386739096" y1="0" x2="120.39833386739096" y2="5" style="visibility: inherit;" fill="rgb(0, 0, 0)" stroke="rgb(204, 204, 204)" stroke-width="1px"></line><line x1="144.47800064086914" y1="0" x2="144.47800064086914" y2="5" style="visibility: inherit;" fill="rgb(0, 0, 0)" stroke="rgb(204, 204, 204)" stroke-width="1px"></line><line x1="168.55766741434735" y1="0" x2="168.55766741434735" y2="5" style="visibility: inherit;" fill="rgb(0, 0, 0)" stroke="rgb(204, 204, 204)" stroke-width="1px"></line><line x1="192.6373341878255" y1="0" x2="192.6373341878255" y2="5" style="visibility: inherit;" fill="rgb(0, 0, 0)" stroke="rgb(204, 204, 204)" stroke-width="1px"></line><line x1="216.7170009613037" y1="0" x2="216.7170009613037" y2="5" style="visibility: inherit;" fill="rgb(0, 0, 0)" stroke="rgb(204, 204, 204)" stroke-width="1px"></line><line x1="240.79666773478192" y1="0" x2="240.79666773478192" y2="5" style="visibility: inherit;" fill="rgb(0, 0, 0)" stroke="rgb(204, 204, 204)" stroke-width="1px"></line><line x1="264.8763345082601" y1="0" x2="264.8763345082601" y2="5" style="visibility: inherit;" fill="rgb(0, 0, 0)" stroke="rgb(204, 204, 204)" stroke-width="1px"></line><line x1="288.9560012817383" y1="0" x2="288.9560012817383" y2="5" style="visibility: inherit;" fill="rgb(0, 0, 0)" stroke="rgb(204, 204, 204)" stroke-width="1px"></line></g><g transform="translate(0, 8)"><text style="text-anchor: middle; visibility: hidden; font-family: Roboto, sans-serif; font-size: 12px; font-weight: 200;" x="0" y="0" dx="0em" dy="0.95em" fill="rgb(33, 33, 33)" stroke="none" stroke-width="1px">-500</text><text style="text-anchor: middle; visibility: inherit; font-family: Roboto, sans-serif; font-size: 12px; font-weight: 200;" x="24.079666773478188" y="0" dx="0em" dy="0.95em" fill="rgb(33, 33, 33)" stroke="none" stroke-width="1px">0</text><text style="text-anchor: middle; visibility: inherit; font-family: Roboto, sans-serif; font-size: 12px; font-weight: 200;" x="48.159333546956375" y="0" dx="0em" dy="0.95em" fill="rgb(33, 33, 33)" stroke="none" stroke-width="1px">500</text><text style="text-anchor: middle; visibility: inherit; font-family: Roboto, sans-serif; font-size: 12px; font-weight: 200;" x="72.23900032043457" y="0" dx="0em" dy="0.95em" fill="rgb(33, 33, 33)" stroke="none" stroke-width="1px">1k</text><text style="text-anchor: middle; visibility: inherit; font-family: Roboto, sans-serif; font-size: 12px; font-weight: 200;" x="96.31866709391275" y="0" dx="0em" dy="0.95em" fill="rgb(33, 33, 33)" stroke="none" stroke-width="1px">1.5k</text><text style="text-anchor: middle; visibility: inherit; font-family: Roboto, sans-serif; font-size: 12px; font-weight: 200;" x="120.39833386739096" y="0" dx="0em" dy="0.95em" fill="rgb(33, 33, 33)" stroke="none" stroke-width="1px">2k</text><text style="text-anchor: middle; visibility: inherit; font-family: Roboto, sans-serif; font-size: 12px; font-weight: 200;" x="144.47800064086914" y="0" dx="0em" dy="0.95em" fill="rgb(33, 33, 33)" stroke="none" stroke-width="1px">2.5k</text><text style="text-anchor: middle; visibility: inherit; font-family: Roboto, sans-serif; font-size: 12px; font-weight: 200;" x="168.55766741434735" y="0" dx="0em" dy="0.95em" fill="rgb(33, 33, 33)" stroke="none" stroke-width="1px">3k</text><text style="text-anchor: middle; visibility: inherit; font-family: Roboto, sans-serif; font-size: 12px; font-weight: 200;" x="192.6373341878255" y="0" dx="0em" dy="0.95em" fill="rgb(33, 33, 33)" stroke="none" stroke-width="1px">3.5k</text><text style="text-anchor: middle; visibility: inherit; font-family: Roboto, sans-serif; font-size: 12px; font-weight: 200;" x="216.7170009613037" y="0" dx="0em" dy="0.95em" fill="rgb(33, 33, 33)" stroke="none" stroke-width="1px">4k</text><text style="text-anchor: middle; visibility: inherit; font-family: Roboto, sans-serif; font-size: 12px; font-weight: 200;" x="240.79666773478192" y="0" dx="0em" dy="0.95em" fill="rgb(33, 33, 33)" stroke="none" stroke-width="1px">4.5k</text><text style="text-anchor: middle; visibility: inherit; font-family: Roboto, sans-serif; font-size: 12px; font-weight: 200;" x="264.8763345082601" y="0" dx="0em" dy="0.95em" fill="rgb(33, 33, 33)" stroke="none" stroke-width="1px">5k</text><text style="text-anchor: middle; visibility: hidden; font-family: Roboto, sans-serif; font-size: 12px; font-weight: 200;" x="288.9560012817383" y="0" dx="0em" dy="0.95em" fill="rgb(33, 33, 33)" stroke="none" stroke-width="1px">5.5k</text></g><line x1="0" y1="0" x2="288.9560012817383" y2="0" fill="rgb(0, 0, 0)" stroke="rgb(204, 204, 204)" stroke-width="1px"></line></g></g></g></g></svg>